<?xml version="1.0" encoding="UTF-8"?>
<svg width="50px" height="24px" viewBox="0 0 50 24" version="1.1" xmlns="http://www.w3.org/2000/svg" xmlns:xlink="http://www.w3.org/1999/xlink">
    <!-- Generator: Sketch 43.2 (39069) - http://www.bohemiancoding.com/sketch -->
    <title>Group 16 Copy 3</title>
    <desc>Created with Sketch.</desc>
    <defs></defs>
    <g id="FINALS" stroke="none" stroke-width="1" fill="none" fill-rule="evenodd">
        <g id="Cart-Promo" transform="translate(-444.000000, -677.000000)">
            <g id="Group-16-Copy-3" transform="translate(444.000000, 677.000000)">
                <path d="M39.2890705,23.0973907 L0.731031715,23.0973907 L4.56080024,6.11324472 C5.26793333,2.97724781 8.09485856,0.744780679 11.3594563,0.744780679 L49.9180308,0.744780679 L46.0877266,17.7289267 C45.3805935,20.8654508 42.554204,23.0973907 39.2890705,23.0973907" id="Fill-27" fill="#00AEEF"></path>
                <path d="M34.455173,10.2904095 C34.5960639,8.57032915 36.4394313,7.14755966 38.6867217,7.14755966 C40.4743755,7.14755966 41.434898,8.06426812 41.434898,8.06426812 C41.434898,8.06426812 41.2816858,8.39795211 40.8900841,8.80965384 C40.4979467,9.22135557 40.1417016,9.42272569 40.1417016,9.42272569 C40.1417016,9.42272569 39.4109974,8.98413947 38.5072599,8.91719181 C37.1492429,8.81545246 36.3885391,9.65572462 36.8979964,10.2587807 C37.5563801,11.0389581 40.8525846,10.7021112 40.5102679,13.4875554 C40.285271,15.3214995 38.5056527,16.6045751 36.1838991,16.6045751 C34.3962452,16.6045751 32.8469809,15.3779042 32.8469809,15.3779042 C32.8469809,15.3779042 33.0950132,14.925085 33.5289358,14.4643587 C33.9623226,14.0036323 34.3051751,13.8291466 34.3051751,13.8291466 C34.3051751,13.8291466 35.5223011,14.4875531 36.4260386,14.5550279 C38.1478005,14.6836518 38.6395795,13.7716876 38.176193,13.2919839 C37.1363859,12.2150228 34.2885681,12.3251965 34.455173,10.2904095" id="Fill-41" fill="#FFFFFF"></path>
                <path d="M22.9981705,5.36332554 C22.4646065,4.9874698 21.7365808,5.08762771 21.7365808,5.08762771 C21.7365808,5.08762771 19.5471468,14.806108 19.4758978,15.1208147 C19.3714349,15.5831225 19.6430383,16.1366268 19.9789265,16.3738429 C20.5124906,16.7496986 21.241052,16.6495407 21.241052,16.6495407 C21.241052,16.6495407 23.4374502,6.89943161 23.5011993,6.61635373 C23.6056621,6.15404589 23.3340588,5.6000145 22.9981705,5.36332554" id="Fill-43" fill="#FFFFFF"></path>
                <path d="M32.1281694,7.19289429 C31.554963,7.19289429 31.034256,7.36579848 31.034256,7.36579848 L29.654275,13.4912455 C27.7128733,15.4253475 25.7987926,14.8797504 26.2005727,13.0974667 L27.4916263,7.36579848 C27.4916263,7.36579848 27.0496681,7.19289429 26.4753904,7.19289429 C25.902184,7.19289429 25.3814769,7.36579848 25.3814769,7.36579848 L24.0904233,13.0974667 C23.5798946,15.3631441 24.5586311,16.6615069 26.2466435,16.6615069 C27.1734164,16.6615069 28.2641157,16.2693096 29.3141011,15.4480148 C29.6114185,16.8217596 31.0497915,16.6615069 31.0497915,16.6615069 L33.1438697,7.36579848 C33.1438697,7.36579848 32.7019115,7.19289429 32.1281694,7.19289429" id="Fill-45" fill="#FFFFFF"></path>
                <path d="M13.5678544,14.7669937 C12.599832,14.7669937 11.9248414,14.2066365 11.6452024,13.4232962 L12.3218002,10.4185589 C12.95447,9.63574575 13.8823143,9.07538859 14.8503367,9.07538859 C16.1681756,9.07538859 16.7837028,10.2799193 16.4135294,11.9214547 C16.0444273,13.562463 14.8856933,14.7669937 13.5678544,14.7669937 M15.703182,7.19294701 C14.6130185,7.19294701 13.6096395,7.63944043 12.7835795,8.37006604 C12.4626911,7.32157085 10.845392,7.60992021 10.845392,7.60992021 L8.24989213,19.1291343 C9.41505461,19.1291343 10.5689672,18.2003015 10.827178,17.0537569 L11.183423,15.4717891 C11.6810947,16.2029418 12.4830479,16.6494353 13.5732115,16.6494353 C15.9576428,16.6494353 17.9360083,14.5281961 18.5236788,11.9214547 C19.1113492,9.31418614 18.0881491,7.19294701 15.703182,7.19294701" id="Fill-47" fill="#FFFFFF"></path>
            </g>
        </g>
    </g>
</svg>